<svg version="1.1" xmlns="http://www.w3.org/2000/svg" xmlns:xlink="http://www.w3.org/1999/xlink" width="41.15288" height="44.48257" viewBox="0,0,41.15288,44.48257"><g transform="translate(-207.01033,-159.81231)"><g data-paper-data="{&quot;isPaintingLayer&quot;:true}" fill="#9966ff" fill-rule="nonzero" stroke="none" stroke-width="0.5" stroke-linecap="butt" stroke-linejoin="miter" stroke-miterlimit="10" stroke-dasharray="" stroke-dashoffset="0" style="mix-blend-mode: normal"><path d="M207.03716,165.76764c0.31008,-2.48069 2.79078,-2.1706 2.79078,-2.1706l2.00814,0.26048c3.01924,0.65117 4.18498,0.76728 7.16839,2.04195c1.95529,0.83541 3.71247,1.93788 5.49644,2.9483c-0.37615,-0.99985 -0.76466,-1.98837 -1.15464,-2.96306c0,0 -0.03452,-0.0863 -0.0736,-0.23226c-0.75016,0.02689 -2.07221,-0.18169 -2.49786,-1.88428c-0.60634,-2.42535 1.81902,-3.0317 1.81902,-3.0317l0.76833,-0.18839c1.71212,-0.17291 3.54235,-1.16707 5.13637,-0.51873c0.33462,0.1361 0.30436,0.46381 0.15129,0.85601l0.03561,0.463l2.39353,0.54452l-1.56569,1.60507v0.14517l1.06217,1.06217l-1.6681,1.6681c0.63121,1.65274 1.2345,3.33462 1.77111,5.03712c0.13859,0.0594 0.30035,0.13994 0.46605,0.24627c4.20596,-2.04943 8.53083,-3.97162 12.52655,-6.37699l1.16857,-0.45228c0,0 2.37171,-0.79057 3.16228,1.58114c0.79057,2.37171 -1.58114,3.16227 -1.58114,3.16227l-0.17723,-0.00367c-4.52689,2.70803 -9.43037,4.84215 -14.15391,7.19743c0.22926,1.11623 0.41434,2.23732 0.54492,3.36099c0.35662,3.06891 -0.33844,5.92281 -0.21301,8.8594c0.06438,1.50744 1.68263,3.09903 2.42356,4.07876c1.5847,2.09545 3.22487,4.15597 5.00179,6.09109l0.82208,0.81875c0,0 1.76776,1.76777 0,3.53554c-1.76776,1.76776 -3.53554,0 -3.53554,0l-0.97231,-0.97566c-2.23531,-2.44245 -4.92659,-5.17852 -6.75087,-8.09708c-3.11195,2.16162 -5.16282,3.82394 -7.14437,7.58424l-0.41842,0.83876c0,0 -1.11803,2.23607 -3.3541,1.11804c-2.23607,-1.11803 -1.11804,-3.3541 -1.11804,-3.3541l0.47879,-0.95564c2.61324,-4.84999 5.44811,-7.0794 9.79209,-10.08559c-0.29007,-2.87498 0.36402,-5.89012 0.02625,-8.84199c-0.20524,-1.79369 -0.56872,-3.58232 -1.03614,-5.35345c-5.37754,-1.91998 -10.01308,-5.39877 -15.84785,-6.6402l-1.58066,-0.18811c0,0 -2.48069,-0.31009 -2.17061,-2.79078z"/></g></g></svg>