<svg version="1.1" xmlns="http://www.w3.org/2000/svg" xmlns:xlink="http://www.w3.org/1999/xlink" width="103.71861" height="103.71861" viewBox="0,0,103.71861,103.71861"><defs><linearGradient x1="188.1407" y1="180.001" x2="291.8593" y2="180.001" gradientUnits="userSpaceOnUse" id="color-1"><stop offset="0" stop-color="#8dc63f"/><stop offset="1" stop-color="#006838"/></linearGradient><radialGradient cx="240" cy="179.99974" r="44.30252" gradientUnits="userSpaceOnUse" id="color-2"><stop offset="0" stop-color="#d7df23"/><stop offset="1" stop-color="#009444"/></radialGradient></defs><g transform="translate(-188.1407,-128.1407)"><g data-paper-data="{&quot;isPaintingLayer&quot;:true}" fill-rule="nonzero" stroke="none" stroke-width="1" stroke-linecap="butt" stroke-linejoin="miter" stroke-miterlimit="10" stroke-dasharray="" stroke-dashoffset="0" style="mix-blend-mode: normal"><path d="M291.8593,180c0,28.59385 -23.26296,51.8593 -51.8593,51.8593c-28.5951,0 -51.8593,-23.26546 -51.8593,-51.8593c0,-28.5951 23.26296,-51.8593 51.8593,-51.8593c28.59634,0 51.8593,23.26546 51.8593,51.8593z" fill="url(#color-1)"/><path d="M195.6967,180c0,-24.46804 19.83526,-44.3033 44.3033,-44.3033c24.46804,0 44.3033,19.83526 44.3033,44.3033c0,24.46804 -19.83526,44.3033 -44.3033,44.3033c-24.46804,0 -44.3033,-19.83526 -44.3033,-44.3033z" fill="url(#color-2)"/></g></g></svg>